) (`-.                           (` .-') /`           ) (`-.
       ( OO ).                          `.( OO ),'            ( OO ).
      (_/.  _)-.-'),-----. ,--.     ,--./  .--.  .-'),-----.(_/.  _)-.
         `.'  ( OO'  .-.  '|  |.-') |      |  | ( OO'  .-.  '  `.'  /
             /Y   |  | |  ||  | OO )|  |   |  |,/   |  | |  |      /
             _) |  ||  ||  |`-' ||  |.'.|  |_)_) |  ||  |      |
        .'    _) |  | |  (|  '---.'|         |    |  | |  | .'    _)
       /  .'.    `'  '-'  '|      | |   ,'.   |    `'  '-'  '/  .'.  
      '--'   '--'   `-----' `------' '--'   '--'      `-----''--'   '--'


      ▀▀▀▀▀▀▀▀▀▀▀▀▀▀▀▀▀▀▀▀▀▀▀▀▀▀▀▀▀▀▀▀▀▀▀▀▀▀▀▀▀▀▀▀▀▀▀▀▀▀▀▀▀▀▀▀▀▀▀▀▀▀▀▀▀▀▀▀▀▀

                       █░░░░░░░░░░░░░░░░░░░░░░░░█
                      ██ Armored[2010]DvDrip-LW ██
                       █░░░░░░░░░░░░░░░░░░░░░░░░█

File Name    : Armored[2010]DvDrip-LW
Type         : Movie
Format       : AVI
File Size    : 701 MB
Duration     : 01:27:51
Language     : English
Source       : DvD
Subtitles    : None
Genre        : Action | Drama | Thriller
IMDB Link    : http://www.imdb.com/title/tt0913354/
IMDB Rating  : 5.8/10
IMDB Votes   : 921 Votes
     ▄▄▄▄▄▄▄▄▄▄▄▄▄▄▄▄▄▄▄▄▄▄▄▄▄▄▄▄▄▄▄▄▄▄▄▄▄▄▄▄▄▄▄▄▄▄▄▄▄▄▄▄▄▄▄▄▄▄▄▄▄▄▄▄▄▄▄▄▄▄
 
                        █░░░░░░░░░░░░░░░░░░░░░░░░█
                       ██       Video Info       ██
                        █░░░░░░░░░░░░░░░░░░░░░░░░█

Format                           : MPEG-4 Visual
Format profile                   : Advanced Simple@L5
Format settings, BVOP            : Yes
Format settings, QPel            : No
Format settings, GMC             : No warppoints
Format settings, Matrix          : Default (H.263)
Muxing mode                      : Packed bitstream
Codec ID                         : XVID
Codec ID/Hint                    : XviD
Duration                         : 1h 27mn
Bit rate                         : 945 Kbps
Width                            : 640 pixels
Height                           : 272 pixels
Display aspect ratio             : 2.35:1
Frame rate                       : 23.976 fps
Resolution                       : 8 bits
Colorimetry                      : 4:2:0
Scan type                        : Progressive
Bits/(Pixel*Frame)               : 0.226
Stream size                      : 594 MiB (85%)
Writing library                  : XviD 1.2.1
     ▄▄▄▄▄▄▄▄▄▄▄▄▄▄▄▄▄▄▄▄▄▄▄▄▄▄▄▄▄▄▄▄▄▄▄▄▄▄▄▄▄▄▄▄▄▄▄▄▄▄▄▄▄▄▄▄▄▄▄▄▄▄▄▄▄▄▄▄▄▄

                         █░░░░░░░░░░░░░░░░░░░░░░░░█
                        ██      Sound Info        ██
                         █░░░░░░░░░░░░░░░░░░░░░░░░█

Format                           : MPEG Audio
Format version                   : Version 1
Format profile                   : Layer 3
Mode                             : Joint stereo / MS Stereo
Codec ID                         : 55
Codec ID/Hint                    : MP3
Duration                         : 1h 27mn
Bit rate mode                    : Variable
Bit rate                         : 158 Kbps
Nominal bit rate                 : 160 Kbps
Channel(s)                       : 2 channels
Sampling rate                    : 48.0 KHz
Stream size                      : 99.2 MiB (14%)
Alignment                        : Aligned on interleaves
Interleave, duration             : 24 ms (0.58 video frame)
Interleave, preload duration     : 481 ms
Writing library                  : LAME3.90
    ▄▄▄▄▄▄▄▄▄▄▄▄▄▄▄▄▄▄▄▄▄▄▄▄▄▄▄▄▄▄▄▄▄▄▄▄▄▄▄▄▄▄▄▄▄▄▄▄▄▄▄▄▄▄▄▄▄▄▄▄▄▄▄▄▄▄▄▄▄▄

                          █░░░░░░░░░░░░░░░░░░░░░░░░█
                         ██          Plot          ██
                          █░░░░░░░░░░░░░░░░░░░░░░░░█

Armored truck guards Mike (Matt Dillon), Baines 
(Laurence Fishburne) and Quinn (Jean Reno) turn 
against one another after their plan to steal $10 
million from their own company goes seriously haywire. 
A witness throws a wrench into their seemingly 
flawless strategy, so each man scrambles to save his 
own skin -- whatever the cost to the other conspirators. 
Nimr≤d Antal directs and Columbus Short co-stars.

Starring: Matt Dillon, Laurence Fishburne

Director: Nimr≤d Antal
    ▄▄▄▄▄▄▄▄▄▄▄▄▄▄▄▄▄▄▄▄▄▄▄▄▄▄▄▄▄▄▄▄▄▄▄▄▄▄▄▄▄▄▄▄▄▄▄▄▄▄▄▄▄▄▄▄▄▄▄▄▄▄▄▄▄▄▄▄▄▄

ScreenShots 
http://imgshack.info/images/tbn18yvy4g5jo3522h1q.png 
http://imgshack.info/images/589hybs3t0656k5g5f.png 
http://imgshack.info/images/9g6ujdojn3wejkr0tf1v.png 
http://imgshack.info/images/sgv1ynyui8vr5m2n705x.png 
http://imgshack.info/images/nwds7rkoyvinp37itc6.jpg